<svg id="visual" viewBox="0 0 900 600" width="900" height="600" xmlns="http://www.w3.org/2000/svg" xmlns:xlink="http://www.w3.org/1999/xlink" version="1.1"><rect x="0" y="0" width="900" height="600" fill="#001220"></rect><defs><linearGradient id="grad1_0" x1="33.3%" y1="0%" x2="100%" y2="100%"><stop offset="20%" stop-color="#0066ff" stop-opacity="1"></stop><stop offset="80%" stop-color="#0066ff" stop-opacity="1"></stop></linearGradient></defs><defs><linearGradient id="grad1_1" x1="33.3%" y1="0%" x2="100%" y2="100%"><stop offset="20%" stop-color="#0066ff" stop-opacity="1"></stop><stop offset="80%" stop-color="#0055c6" stop-opacity="1"></stop></linearGradient></defs><defs><linearGradient id="grad1_2" x1="33.3%" y1="0%" x2="100%" y2="100%"><stop offset="20%" stop-color="#00408b" stop-opacity="1"></stop><stop offset="80%" stop-color="#0055c6" stop-opacity="1"></stop></linearGradient></defs><defs><linearGradient id="grad1_3" x1="33.3%" y1="0%" x2="100%" y2="100%"><stop offset="20%" stop-color="#00408b" stop-opacity="1"></stop><stop offset="80%" stop-color="#002a53" stop-opacity="1"></stop></linearGradient></defs><defs><linearGradient id="grad1_4" x1="33.3%" y1="0%" x2="100%" y2="100%"><stop offset="20%" stop-color="#001220" stop-opacity="1"></stop><stop offset="80%" stop-color="#002a53" stop-opacity="1"></stop></linearGradient></defs><defs><linearGradient id="grad2_0" x1="0%" y1="0%" x2="66.7%" y2="100%"><stop offset="20%" stop-color="#0066ff" stop-opacity="1"></stop><stop offset="80%" stop-color="#0066ff" stop-opacity="1"></stop></linearGradient></defs><defs><linearGradient id="grad2_1" x1="0%" y1="0%" x2="66.7%" y2="100%"><stop offset="20%" stop-color="#0055c6" stop-opacity="1"></stop><stop offset="80%" stop-color="#0066ff" stop-opacity="1"></stop></linearGradient></defs><defs><linearGradient id="grad2_2" x1="0%" y1="0%" x2="66.7%" y2="100%"><stop offset="20%" stop-color="#0055c6" stop-opacity="1"></stop><stop offset="80%" stop-color="#00408b" stop-opacity="1"></stop></linearGradient></defs><defs><linearGradient id="grad2_3" x1="0%" y1="0%" x2="66.7%" y2="100%"><stop offset="20%" stop-color="#002a53" stop-opacity="1"></stop><stop offset="80%" stop-color="#00408b" stop-opacity="1"></stop></linearGradient></defs><defs><linearGradient id="grad2_4" x1="0%" y1="0%" x2="66.7%" y2="100%"><stop offset="20%" stop-color="#002a53" stop-opacity="1"></stop><stop offset="80%" stop-color="#001220" stop-opacity="1"></stop></linearGradient></defs><g transform="translate(900, 0)"><path d="M0 486.7C-74.6 456.6 -149.2 426.5 -225 389.7C-300.8 352.9 -377.7 309.4 -421.5 243.4C-465.4 177.3 -476.1 88.7 -486.7 0L0 0Z" fill="#001e39"></path><path d="M0 389.4C-59.7 365.3 -119.4 341.2 -180 311.8C-240.6 282.3 -302.2 247.6 -337.2 194.7C-372.3 141.8 -380.8 70.9 -389.4 0L0 0Z" fill="#00356f"></path><path d="M0 292C-44.8 274 -89.5 255.9 -135 233.8C-180.5 211.7 -226.6 185.7 -252.9 146C-279.2 106.4 -285.6 53.2 -292 0L0 0Z" fill="#004ba9"></path><path d="M0 194.7C-29.8 182.7 -59.7 170.6 -90 155.9C-120.3 141.2 -151.1 123.8 -168.6 97.3C-186.1 70.9 -190.4 35.5 -194.7 0L0 0Z" fill="#005ee3"></path><path d="M0 97.3C-14.9 91.3 -29.8 85.3 -45 77.9C-60.2 70.6 -75.5 61.9 -84.3 48.7C-93.1 35.5 -95.2 17.7 -97.3 0L0 0Z" fill="#0066ff"></path></g><g transform="translate(0, 600)"><path d="M0 -486.7C70.9 -450.2 141.8 -413.6 218 -377.6C294.2 -341.6 375.9 -306.2 421.5 -243.4C467.2 -180.5 477 -90.3 486.7 0L0 0Z" fill="#001e39"></path><path d="M0 -389.4C56.7 -360.1 113.4 -330.9 174.4 -302.1C235.4 -273.3 300.7 -245 337.2 -194.7C373.8 -144.4 381.6 -72.2 389.4 0L0 0Z" fill="#00356f"></path><path d="M0 -292C42.5 -270.1 85.1 -248.1 130.8 -226.6C176.5 -205 225.5 -183.7 252.9 -146C280.3 -108.3 286.2 -54.2 292 0L0 0Z" fill="#004ba9"></path><path d="M0 -194.7C28.4 -180.1 56.7 -165.4 87.2 -151C117.7 -136.6 150.3 -122.5 168.6 -97.3C186.9 -72.2 190.8 -36.1 194.7 0L0 0Z" fill="#005ee3"></path><path d="M0 -97.3C14.2 -90 28.4 -82.7 43.6 -75.5C58.8 -68.3 75.2 -61.2 84.3 -48.7C93.4 -36.1 95.4 -18.1 97.3 0L0 0Z" fill="#0066ff"></path></g></svg>