<svg id="visual" viewBox="0 0 900 600" width="900" height="600" xmlns="http://www.w3.org/2000/svg" xmlns:xlink="http://www.w3.org/1999/xlink" version="1.1"><rect x="0" y="0" width="900" height="600" fill="#001220"></rect><defs><linearGradient id="grad1_0" x1="33.3%" y1="0%" x2="100%" y2="100%"><stop offset="20%" stop-color="#001220" stop-opacity="1"></stop><stop offset="80%" stop-color="#001220" stop-opacity="1"></stop></linearGradient></defs><defs><linearGradient id="grad2_0" x1="0%" y1="0%" x2="66.7%" y2="100%"><stop offset="20%" stop-color="#001220" stop-opacity="1"></stop><stop offset="80%" stop-color="#001220" stop-opacity="1"></stop></linearGradient></defs><g id="rotate" transform="translate(900, 0)"><path d="M0 486.7C-64.6 474.8 -129.1 462.8 -179.1 432.4C-229.1 402 -264.5 353.1 -311.8 311.8C-359.2 270.6 -418.5 237 -449.7 186.3C-480.8 135.6 -483.8 67.8 -486.7 0L0 0Z" fill="#FBAE3C"></path></g><g id="rotate" transform="translate(0, 600)"><path d="M0 -486.7C71.9 -487.9 143.9 -489.1 186.3 -449.7C228.7 -410.3 241.6 -330.2 282.8 -282.8C324.1 -235.5 393.7 -220.8 432.4 -179.1C471.1 -137.4 478.9 -68.7 486.7 0L0 0Z" fill="#FBAE3C"></path></g></svg>